<?xml version="1.0" standalone="no"?>
<!DOCTYPE svg PUBLIC "-//W3C//DTD SVG 20010904//EN"
 "http://www.w3.org/TR/2001/REC-SVG-20010904/DTD/svg10.dtd">
<svg version="1.0" xmlns="http://www.w3.org/2000/svg"
 width="984.000000pt" height="984.000000pt" viewBox="0 0 984.000000 984.000000"
 preserveAspectRatio="xMidYMid meet">
<metadata>
Created by potrace 1.11, written by Peter Selinger 2001-2013
</metadata>
<g transform="translate(0.000000,984.000000) scale(0.100000,-0.100000)"
fill="#000000" stroke="none">
<path d="M4579 9736 c-2 -2 -49 -6 -104 -10 -55 -4 -118 -8 -140 -11 -22 -2
-65 -6 -95 -9 -30 -4 -66 -8 -80 -11 -14 -3 -45 -8 -70 -11 -63 -8 -92 -12
-117 -18 -11 -2 -43 -8 -70 -12 -53 -9 -62 -11 -65 -14 -4 -2 -37 -9 -73 -14
-16 -3 -30 -5 -30 -6 0 -1 -11 -3 -25 -6 -14 -2 -32 -7 -40 -10 -8 -4 -25 -8
-37 -10 -13 -1 -37 -7 -55 -13 -56 -17 -213 -65 -218 -66 -43 -10 -309 -103
-355 -124 -52 -25 -136 -61 -142 -61 -12 0 -378 -185 -381 -192 -2 -5 -8 -8
-13 -8 -5 0 -50 -25 -100 -55 -50 -30 -94 -55 -100 -55 -5 0 -9 -4 -9 -10 0
-5 -7 -10 -15 -10 -8 0 -15 -4 -15 -10 0 -5 -5 -10 -11 -10 -6 0 -25 -11 -43
-25 -18 -14 -38 -25 -44 -25 -7 0 -12 -4 -12 -8 0 -4 -15 -16 -32 -27 -33 -19
-46 -28 -73 -52 -7 -7 -18 -13 -23 -13 -6 0 -12 -3 -14 -7 -2 -5 -25 -24 -53
-43 -27 -19 -57 -41 -65 -50 -32 -29 -70 -60 -70 -55 0 3 -8 -3 -19 -12 -22
-21 -88 -79 -167 -148 -79 -68 -326 -316 -394 -395 -30 -35 -69 -80 -86 -99
-33 -38 -169 -212 -194 -247 -92 -130 -237 -354 -232 -358 3 -3 0 -6 -6 -6 -7
0 -12 -6 -12 -13 0 -7 -8 -22 -17 -33 -10 -11 -29 -42 -43 -69 -14 -28 -28
-51 -32 -53 -5 -2 -8 -12 -8 -22 0 -10 -4 -21 -9 -24 -8 -5 -115 -209 -119
-228 -2 -4 -15 -36 -31 -70 -43 -95 -56 -128 -86 -203 -14 -39 -33 -86 -41
-105 -8 -20 -16 -42 -18 -50 -2 -8 -6 -22 -9 -30 -16 -39 -38 -107 -41 -126
-2 -11 -6 -27 -11 -34 -4 -7 -11 -26 -15 -44 -5 -17 -17 -63 -29 -102 -11 -39
-23 -86 -26 -104 -3 -18 -8 -36 -10 -40 -2 -3 -6 -17 -9 -31 -3 -13 -7 -35
-10 -49 -16 -72 -38 -185 -42 -211 -4 -32 -11 -71 -18 -109 -7 -39 -18 -121
-22 -165 -2 -22 -6 -58 -9 -80 -20 -169 -27 -675 -12 -855 16 -183 35 -344 52
-431 3 -14 7 -41 9 -60 3 -19 5 -34 6 -34 2 0 9 -32 15 -70 2 -16 7 -41 10
-55 3 -14 8 -36 10 -50 4 -26 72 -277 100 -370 9 -30 17 -59 18 -65 2 -5 6
-16 10 -23 5 -7 11 -24 13 -39 3 -15 11 -34 17 -42 7 -8 11 -17 10 -20 -4 -9
24 -90 64 -183 19 -45 37 -93 40 -106 3 -12 9 -22 14 -22 5 0 9 -9 9 -19 0
-11 5 -23 10 -26 6 -3 10 -15 10 -26 0 -10 5 -19 12 -19 6 0 9 -2 6 -5 -8 -8
153 -323 217 -425 12 -19 23 -39 23 -43 1 -4 19 -33 40 -65 22 -31 54 -81 72
-109 19 -29 37 -53 42 -53 4 0 8 -5 8 -12 0 -6 11 -26 25 -44 14 -18 25 -37
25 -43 0 -6 4 -11 8 -11 5 0 25 -24 45 -52 20 -29 47 -65 59 -80 48 -55 58
-68 58 -73 0 -3 8 -13 17 -23 10 -10 41 -45 68 -77 104 -121 134 -153 266
-285 141 -141 215 -210 223 -210 2 0 20 -15 38 -33 19 -17 49 -43 68 -57 18
-14 38 -30 45 -37 6 -6 52 -41 101 -78 49 -37 91 -71 92 -76 2 -5 8 -7 13 -3
5 3 9 0 9 -5 0 -6 6 -11 14 -11 8 0 16 -4 18 -9 3 -9 237 -163 298 -197 19
-10 37 -22 40 -25 3 -3 55 -33 115 -65 61 -32 112 -62 113 -66 2 -4 9 -8 16
-8 8 0 56 -21 107 -47 52 -26 96 -48 99 -48 7 -2 59 -24 95 -40 45 -20 239
-97 250 -99 6 -1 15 -5 21 -8 6 -4 21 -9 35 -12 13 -2 38 -10 54 -17 17 -7 41
-14 55 -16 13 -2 30 -9 37 -15 7 -6 13 -8 13 -4 0 3 17 -1 38 -9 40 -16 262
-75 302 -80 14 -2 26 -4 28 -6 1 -1 5 -2 10 -3 85 -21 108 -25 267 -52 55 -9
116 -18 135 -20 19 -2 51 -5 70 -8 200 -26 262 -29 665 -30 333 -1 523 5 595
18 14 3 54 7 90 11 36 3 76 8 90 10 57 7 239 38 295 49 106 22 265 59 285 67
14 5 34 11 45 13 11 2 47 12 80 22 33 10 62 19 65 19 3 1 12 4 20 7 8 3 60 20
115 38 88 29 200 71 275 103 14 6 27 11 30 12 63 22 377 173 385 185 4 6 11 8
16 5 5 -4 9 -1 9 4 0 6 3 10 8 9 4 -1 18 4 32 12 14 8 39 22 55 31 17 10 49
28 73 40 23 13 42 27 42 31 0 4 5 8 11 8 10 0 257 156 269 170 3 3 21 17 40
30 19 13 41 30 48 37 7 7 17 13 21 13 4 0 16 8 27 18 10 10 47 39 82 66 63 48
193 158 266 225 66 60 306 301 306 307 0 3 10 15 23 27 29 28 144 162 177 207
14 18 30 38 36 44 76 79 427 614 427 654 0 6 4 12 8 12 8 0 149 282 149 299 0
6 5 11 10 11 6 0 9 3 8 8 -1 8 10 36 42 106 11 25 20 48 20 51 0 3 8 25 19 48
22 50 91 239 96 264 2 10 10 36 18 59 14 39 74 246 82 281 2 10 13 56 24 103
20 84 33 153 34 178 0 6 3 12 6 12 3 0 7 12 7 28 1 15 4 41 7 57 4 17 9 55 13
85 3 30 8 64 11 75 2 11 6 38 8 60 3 22 7 60 9 85 28 255 29 786 1 980 -2 19
-7 62 -10 95 -8 78 -13 119 -15 123 -2 1 -3 10 -4 20 -4 30 -18 126 -23 147
-2 11 -6 34 -9 50 -2 17 -7 41 -11 55 -3 14 -8 34 -10 45 -7 45 -27 126 -55
230 -17 61 -31 115 -33 120 -1 6 -5 17 -8 25 -9 24 -29 90 -31 103 -1 7 -4 17
-7 22 -4 6 -12 31 -20 58 -7 26 -16 47 -19 47 -3 0 -7 10 -8 23 -1 12 -22 72
-48 132 -25 61 -46 116 -46 123 -1 6 -5 12 -10 12 -5 0 -6 5 -3 10 3 6 1 10
-4 10 -6 0 -10 3 -9 8 1 4 -4 20 -11 37 -19 45 -154 319 -160 325 -3 3 -16 25
-29 50 -32 60 -68 122 -81 137 -6 7 -11 15 -11 18 0 4 -15 30 -33 58 -18 29
-37 59 -42 68 -30 49 -120 174 -127 177 -4 2 -8 8 -8 13 0 5 -6 17 -14 26 -8
10 -55 70 -105 133 -49 63 -101 129 -116 145 -14 17 -43 50 -63 74 -57 68
-318 328 -407 406 -44 39 -82 72 -85 75 -11 13 -207 168 -240 190 -19 13 -37
27 -40 30 -3 3 -34 26 -70 50 -36 24 -85 58 -110 75 -25 17 -64 42 -87 55 -24
13 -43 28 -43 34 0 5 -3 7 -6 3 -4 -3 -26 7 -50 23 -23 17 -45 30 -49 30 -4 0
-25 13 -48 28 -36 24 -393 206 -407 207 -3 1 -15 6 -27 13 -13 7 -23 10 -23 8
0 -3 -17 3 -37 13 -47 24 -207 87 -288 113 -33 10 -67 22 -75 25 -14 6 -25 9
-52 16 -7 2 -53 16 -103 31 -144 43 -188 56 -215 60 -14 3 -27 5 -30 6 -3 1
-9 3 -15 4 -5 1 -28 6 -50 11 -22 5 -47 9 -55 10 -9 0 -21 4 -28 9 -6 4 -12 5
-12 2 0 -2 -15 0 -32 5 -18 5 -51 12 -73 15 -47 6 -80 12 -80 14 0 1 -13 3
-30 5 -41 4 -122 14 -165 20 -19 2 -64 7 -100 11 -36 3 -81 8 -100 11 -41 6
-815 15 -821 9z"/>
</g>
</svg>
