<svg width="246" height="241" viewBox="0 0 246 241" fill="none" xmlns="http://www.w3.org/2000/svg">
<rect width="246" height="241" rx="120.5" fill="white"/>
<path d="M122.895 98.8248C127.976 98.836 132.943 97.6411 137.168 95.391C141.393 93.1409 144.686 89.9367 146.631 86.1837C148.575 82.4306 149.084 78.2973 148.093 74.3063C147.101 70.3153 144.655 66.646 141.062 63.7622C137.469 60.8785 132.891 58.9099 127.907 58.1054C122.924 57.301 117.758 57.6967 113.063 59.2426C108.369 60.7886 104.356 63.4153 101.533 66.7905C98.7105 70.1658 97.2037 74.138 97.2037 78.205L105.763 78.224C105.763 75.5119 106.768 72.863 108.65 70.6122C110.533 68.3614 113.208 66.6098 116.339 65.5789C119.469 64.548 122.914 64.2841 126.237 64.8206C129.561 65.357 132.613 66.6698 135.009 68.5928C137.405 70.5158 139.037 72.9627 139.698 75.6241C140.359 78.2855 140.02 81.0419 138.723 83.5446C137.427 86.0473 135.231 88.184 132.413 89.6845C129.596 91.185 126.284 91.9818 122.895 91.9743V98.8248Z" fill="#EF233C"/>
<path d="M158.944 111.101C167.671 104.362 173.218 95.4133 174.651 85.7638C176.085 76.1143 173.316 66.3538 166.812 58.1274C160.309 49.901 150.468 43.7117 138.948 40.6029C127.428 37.494 114.934 37.6557 103.571 41.0606C92.2091 44.4655 82.6732 50.9055 76.5711 59.295C70.469 67.6845 68.1738 77.5105 70.0725 87.1169C71.9712 96.7232 77.9476 105.522 86.9944 112.031C96.0412 118.54 107.605 122.361 119.737 122.849L120.201 114.966C110.335 114.568 100.932 111.461 93.5747 106.168C86.2178 100.875 81.3578 93.7196 79.8138 85.9076C78.2697 78.0957 80.1362 70.1051 85.0984 63.2827C90.0607 56.4603 97.8153 51.2233 107.055 48.4544C116.295 45.6856 126.456 45.5541 135.823 48.0822C145.191 50.6104 153.194 55.6435 158.483 62.3332C163.772 69.023 166.023 76.9603 164.858 84.8073C163.692 92.6543 159.181 99.9311 152.084 105.411L158.944 111.101Z" fill="#EF233C"/>
<path d="M126.986 116.229C139.096 116.923 150.56 120.935 159.449 127.589C168.337 134.243 174.107 143.133 175.787 152.762C177.466 162.391 174.954 172.172 168.671 180.457C162.389 188.742 152.721 195.026 141.295 198.251C129.869 201.476 117.382 201.444 105.937 198.162C94.4913 194.881 84.7866 188.548 78.4562 180.232C72.1257 171.915 69.5561 162.122 71.18 152.501C72.8038 142.88 78.5219 134.019 87.3717 127.409L94.1203 133.195C86.9236 138.57 82.2736 145.776 80.9531 153.6C79.6326 161.424 81.7222 169.387 86.8701 176.151C92.0181 182.914 99.91 188.063 109.217 190.732C118.525 193.401 128.679 193.426 137.971 190.804C147.263 188.181 155.125 183.071 160.234 176.334C165.342 169.596 167.386 161.643 166.02 153.812C164.654 145.982 159.962 138.753 152.734 133.341C145.506 127.93 136.183 124.668 126.335 124.103L126.986 116.229Z" fill="#EF233C"/>
<rect x="119.308" y="79.8595" width="8.97608" height="99.7285" fill="#EF233C"/>
</svg>
